Jump_normalized_Motion_pl10
version=1
nRows=14
nColumns=43
inDegrees=yes
endheader
time		pelvis_tilt		pelvis_list		pelvis_rotation		pelvis_tx		pelvis_ty		pelvis_tz		hip_flexion_r		hip_adduction_r		hip_rotation_r		knee_angle_r		ankle_angle_r		subtalar_angle_r		mtp_angle_r		hip_flexion_l		hip_adduction_l		hip_rotation_l		knee_angle_l		ankle_angle_l		subtalar_angle_l		mtp_angle_l		lumbar_extension		lumbar_bending		lumbar_rotation		neck_flexion		neck_lateral_bending		neck_rotation		arm_flex_r		arm_add_r		arm_rot_r		elbow_flex_r		pro_sup_r		wrist_flex_r		wrist_dev_r		hand_finger_flex_r		arm_flex_l		arm_add_l		arm_rot_l		elbow_flex_l		pro_sup_l		wrist_flex_l		wrist_dev_l		hand_finger_flex_l		
0.305000		6.157525		-33.075620		94.072716		0.010574		1.732010		1.649266		73.353894		-12.100602		3.525130		-129.467479		32.883859		9.716542		-18.224564		76.019670		-12.247441		8.330529		-128.904556		35.993002		-1.318649		-31.345528		-21.969652		4.017019		-0.862986		29.598913		-0.206621		6.877899		119.079809		-16.235829		44.018587		62.801593		57.474701		-33.769926		-18.147379		60.268586		131.207396		-20.711125		63.361380		66.160796		66.366456		-47.051933		5.926676		73.776419		
0.307197		6.149646		-33.083650		94.101381		0.010413		1.732893		1.644148		72.951938		-12.156797		3.469911		-129.247000		32.105234		9.839527		-18.179856		75.572706		-12.313696		8.280042		-128.659192		35.247579		-1.078200		-31.365031		-21.597860		4.058882		-0.901821		28.915989		-0.292767		6.880955		119.007420		-16.260074		44.235441		62.650165		57.529065		-33.727800		-18.020203		60.215568		131.202743		-20.747511		63.719752		65.963775		66.305134		-47.026786		5.970099		73.793028		
0.309394		6.139586		-33.039716		94.147323		0.010240		1.733850		1.639036		72.511369		-12.220167		3.396612		-129.008109		31.182850		9.818002		-18.124331		75.100903		-12.340017		8.250742		-128.416085		34.404990		-0.950649		-31.391261		-21.295258		4.101661		-0.985252		28.257572		-0.359381		6.900977		118.961911		-16.241563		44.432521		62.445382		57.583924		-33.698015		-17.847320		60.131149		131.246901		-20.791205		64.137043		65.744548		66.236654		-46.975882		5.989042		73.823969		
0.311591		6.158304		-32.796589		94.266893		0.009992		1.735228		1.633723		71.841598		-12.302323		3.147931		-128.745774		30.004061		9.140252		-17.497847		74.435414		-12.311861		8.217236		-128.140527		33.365477		-1.317507		-31.236921		-21.268948		4.205222		-1.196768		27.845726		-0.369548		7.038852		118.940470		-16.104895		44.485371		62.228172		57.831168		-33.546608		-17.463561		59.715105		131.530944		-20.978585		64.870478		65.583915		65.817115		-46.932449		5.706119		73.949634		
0.313788		6.155875		-32.640946		94.336922		0.009789		1.736397		1.628460		71.299002		-12.384296		2.980504		-128.494055		28.916860		8.831534		-17.111575		73.876835		-12.331921		8.182455		-127.880139		32.335483		-1.394545		-31.183020		-21.122273		4.270060		-1.334440		27.306045		-0.416617		7.123506		118.890882		-16.052626		44.608566		62.051893		58.010595		-33.435863		-17.186632		59.449012		131.683729		-21.103425		65.452785		65.416910		65.554790		-46.897838		5.561989		74.032498		
0.315985		6.139198		-32.499521		94.393895		0.009597		1.737513		1.623226		70.807252		-12.471069		2.824440		-128.245413		27.729857		8.513221		-16.670491		73.358379		-12.347159		8.133462		-127.625398		31.211544		-1.539585		-31.172527		-20.959924		4.309944		-1.458407		26.745655		-0.442128		7.185901		118.830350		-16.032995		44.729954		61.883550		58.222820		-33.321071		-16.926523		59.175645		131.821850		-21.189687		66.030277		65.226831		65.329119		-46.880178		5.437615		74.103270		
0.318182		6.124185		-32.293317		94.470463		0.009393		1.738737		1.617951		70.269271		-12.565454		2.618490		-127.996780		26.371104		7.954954		-16.018999		72.798773		-12.334301		8.081696		-127.363278		29.957345		-1.904475		-31.127315		-20.889251		4.356731		-1.622413		26.255714		-0.432198		7.274950		118.775535		-15.985215		44.804430		61.710496		58.511185		-33.170056		-16.606220		58.791961		132.036925		-21.302365		66.713753		65.036277		65.016732		-46.868351		5.228561		74.197122		
0.320379		6.080161		-32.158591		94.477526		0.009288		1.739762		1.612711		69.844230		-12.647446		2.530594		-127.764352		25.091961		7.910335		-15.138878		72.324412		-12.395513		8.046761		-127.115794		28.766834		-1.790932		-31.049419		-20.715213		4.356719		-1.715185		25.615080		-0.471407		7.323483		118.677969		-15.991253		44.900418		61.574015		58.801209		-32.957884		-16.330591		58.424563		132.136757		-21.377835		67.287146		64.851396		64.715455		-46.918996		5.094494		74.260086		
0.322576		5.993484		-31.771665		94.482045		0.009254		1.741291		1.607350		69.171030		-12.717410		2.331948		-127.482848		23.062218		7.130071		-10.608981		71.580263		-12.429872		7.924803		-126.836514		27.311714		-2.285379		-30.215671		-20.897185		4.306774		-1.964867		25.261070		-0.317191		7.494646		118.505589		-15.817122		44.451983		61.375121		59.984028		-32.006303		-15.453010		56.733780		132.687102		-21.561897		68.591552		64.669717		63.241284		-47.369138		4.181845		74.485471		
0.324773		5.978884		-31.711292		94.549523		0.008991		1.742056		1.602253		68.915681		-12.834199		2.223426		-127.301749		21.542850		6.913958		-10.514660		71.278957		-12.403886		7.919524		-126.600652		25.914717		-2.482703		-30.301834		-20.633308		4.342035		-2.061762		24.684210		-0.328863		7.497093		118.456624		-15.862949		44.719407		61.193419		60.020290		-32.008415		-15.398219		56.718868		132.716621		-21.543674		69.050697		64.358505		63.442073		-47.262949		4.303071		74.505540		
0.326970		5.944453		-31.567500		94.613172		0.008808		1.743107		1.597042		68.552097		-12.948962		1.986079		-127.043808		19.830517		6.095489		-10.057995		70.891226		-12.368542		7.836706		-126.325742		24.397631		-3.207191		-30.230719		-20.509412		4.339683		-2.207227		24.161102		-0.249417		7.565060		118.377786		-15.969532		44.921429		61.163253		60.171196		-32.038452		-15.355198		56.607306		132.856255		-21.603771		69.614825		64.197977		63.635241		-47.110179		4.377071		74.536164		
0.329167		5.901170		-31.384344		94.654270		0.008667		1.744170		1.591856		68.183944		-13.044375		1.792611		-126.791072		18.008592		5.385526		-9.420622		70.487840		-12.358701		7.772139		-126.061738		22.924611		-3.773580		-29.999730		-20.439919		4.319923		-2.339689		23.658808		-0.157546		7.623268		118.311784		-16.054994		45.086655		61.093090		60.410793		-32.049652		-15.251374		56.430033		133.022442		-21.640996		70.220447		64.000939		63.720687		-46.998444		4.429348		74.530366		
0.331364		5.853351		-31.195844		94.683037		0.008548		1.745191		1.586703		67.844554		-13.138082		1.624733		-126.540796		16.079909		4.716344		-8.703990		70.105145		-12.355112		7.720596		-125.808201		21.496303		-4.258654		-29.600279		-20.381793		4.288849		-2.460688		23.163656		-0.044297		7.673269		118.241000		-16.138462		45.230974		61.011874		60.721569		-32.032585		-15.117397		56.212944		133.207953		-21.658636		70.866259		63.782935		63.748702		-46.913048		4.459439		74.500896		
0.333561		5.811136		-31.028236		94.697082		0.008460		1.746082		1.581616		67.551814		-13.224468		1.522387		-126.302329		14.300564		4.431643		-8.323940		69.786058		-12.367222		7.717834		-125.595541		20.262167		-4.431024		-29.335685		-20.295205		4.262992		-2.551613		22.571145		0.003142		7.702254		118.178250		-16.232162		45.413705		60.936791		60.960566		-32.008300		-15.001951		56.075665		133.334980		-21.679332		71.418027		63.583205		63.781808		-46.841568		4.507688		74.482813		
